<svg xmlns="http://www.w3.org/2000/svg" width="1600" height="1600"><path fill="#232323" d="m777.754-.203 4.982-.021c5.275-.02 10.55-.025 15.827-.026l2.721-.001c25.585-.007 51.05.06 76.498 2.998 2.352.268 4.705.522 7.058.773C947.144 10.23 1007.884 24.332 1067 45l2.042.712c43.062 15.05 84.813 34.105 124.37 56.813a467.586 467.586 0 0 0 6.756 3.776c20.037 10.998 39.095 23.635 57.832 36.699l1.972 1.368c11.28 7.843 22.147 16.25 33.028 24.632l2.082 1.6c8.284 6.381 16.282 13.041 24.177 19.897 1.714 1.48 3.44 2.943 5.17 4.401 10.483 8.851 20.624 18.096 30.294 27.832 2.348 2.362 4.731 4.62 7.277 6.77 5.143 4.45 9.88 9.155 14.313 14.313 2.763 3.21 5.673 6.21 8.687 9.187 3.57 3.533 6.966 7.134 10.23 10.95 2.008 2.326 4.075 4.592 6.145 6.863 3.897 4.318 7.598 8.765 11.254 13.289a382.702 382.702 0 0 0 6.308 7.485c6.163 7.171 11.835 14.645 17.449 22.25a456.61 456.61 0 0 0 4.934 6.468c21.943 28.49 41.225 59.285 58.68 90.695l1.627 2.922c40.705 73.44 69.155 152.987 96.611 319.855l.192 2.067c1.229 13.967 1.736 27.895 1.773 41.91l.021 4.982c.02 5.275.025 10.55.026 15.827l.001 2.721c.007 25.585-.06 51.05-2.998 76.498a965.308 965.308 0 0 0-.773 7.058c-6.71 62.304-20.812 123.044-41.48 182.16l-.712 2.042c-15.05 43.062-34.105 84.813-56.813 124.37a467.586 467.586 0 0 0-3.776 6.756c-10.998 20.037-23.635 39.095-36.699 57.832l-1.368 1.972c-7.843 11.28-16.25 22.147-24.632 33.028l-1.6 2.082c-6.381 8.284-13.041 16.282-19.897 24.177a569.405 569.405 0 0 0-4.401 5.17c-8.851 10.483-18.096 20.624-27.832 30.294-2.362 2.348-4.62 4.731-6.77 7.277-4.45 5.143-9.155 9.88-14.313 14.313-3.21 2.763-6.21 5.673-9.187 8.687-3.533 3.57-7.134 6.966-10.95 10.23-2.326 2.008-4.592 4.075-6.862 6.145-4.32 3.897-8.766 7.598-13.29 11.254a382.702 382.702 0 0 0-7.485 6.308c-7.171 6.163-14.645 11.835-22.25 17.449a456.61 456.61 0 0 0-6.468 4.934c-28.49 21.943-59.285 41.225-90.695 58.68l-2.922 1.627c-73.44 40.705-152.987 69.155-319.855 96.611l-2.067.192c-13.967 1.229-27.895 1.736-41.91 1.773l-4.982.021c-5.275.02-10.55.025-15.827.026l-2.721.001c-25.585.007-51.05-.06-76.498-2.998a965.308 965.308 0 0 0-7.058-.773c-62.304-6.71-123.044-20.812-182.16-41.48l-2.042-.712c-43.062-15.05-84.813-34.105-124.37-56.813a467.586 467.586 0 0 0-6.756-3.776c-20.037-10.998-39.095-23.635-57.832-36.699l-1.972-1.368c-11.28-7.843-22.147-16.25-33.028-24.632l-2.082-1.6c-8.284-6.381-16.282-13.041-24.177-19.897a569.405 569.405 0 0 0-5.17-4.401c-10.483-8.851-20.624-18.096-30.294-27.832-2.348-2.362-4.731-4.62-7.277-6.77-5.143-4.45-9.88-9.155-14.313-14.313-2.763-3.21-5.673-6.21-8.687-9.187-3.57-3.533-6.966-7.134-10.23-10.95-2.008-2.326-4.075-4.592-6.145-6.862-3.897-4.32-7.598-8.766-11.254-13.29a382.702 382.702 0 0 0-6.308-7.485c-6.163-7.171-11.835-14.645-17.449-22.25a456.61 456.61 0 0 0-4.934-6.468c-21.943-28.49-41.225-59.285-58.68-90.695l-1.627-2.922c-40.705-73.44-69.155-152.987-96.611-319.855l-.192-2.067c-1.229-13.967-1.736-27.895-1.773-41.91l-.021-4.982c-.02-5.275-.025-10.55-.026-15.827l-.001-2.721c-.007-25.585.06-51.05 2.998-76.498.268-2.352.522-4.705.773-7.058C10.23 652.856 24.332 592.116 45 533l.712-2.042c15.05-43.062 34.105-84.813 56.813-124.37a467.586 467.586 0 0 0 3.776-6.756C117.299 379.795 129.936 360.737 143 342l1.368-1.972c7.843-11.28 16.25-22.147 24.632-33.028l1.6-2.082c6.381-8.284 13.041-16.282 19.897-24.177 1.48-1.714 2.943-3.44 4.401-5.17 8.851-10.483 18.096-20.624 27.832-30.294 2.362-2.348 4.62-4.731 6.77-7.277 4.45-5.143 9.155-9.88 14.313-14.313 3.21-2.763 6.21-5.673 9.187-8.687 3.533-3.57 7.134-6.966 10.95-10.23 2.326-2.008 4.592-4.075 6.863-6.145 4.318-3.897 8.765-7.598 13.289-11.254a382.702 382.702 0 0 0 7.485-6.308c7.171-6.163 14.645-11.835 22.25-17.449a456.61 456.61 0 0 0 6.468-4.934C348.795 136.737 379.59 117.455 411 100l2.922-1.627c73.44-40.705 152.987-69.155 319.855-96.611l2.067-.192c13.967-1.229 27.895-1.736 41.91-1.773Z"/><path fill="#F9F7F9" d="m314 693 2.445 1.117C322.65 697.02 327.79 700.573 333 705l2.504 2.098c18.298 15.84 30.042 38.693 32.3 62.84.37 5.784.382 11.572.381 17.366.002 2.192.02 4.383.04 6.575.003 1.426.005 2.851.005 4.277l.013 3.838C368 806 368 806 366 816H220c3.679 16.554 11.71 30.97 26.313 40.313 16.52 9.609 36.81 11.745 55.375 7 9.125-2.645 17.296-6.471 25.34-11.493 1.972-.82 1.972-.82 3.984-.664 2.457 1.043 3.93 2.375 5.863 4.219 4.51 4.151 9.235 7.927 14.076 11.68A354.65 354.65 0 0 1 362 876c-12.043 12.616-32.347 20.95-49 25l-3.066.895c-19.83 5.032-42.345 3.498-61.934-1.895l-3.39-.875C230.65 895.032 219.575 886.66 209 877l-2.121-1.906c-18.556-17.523-28.36-44.87-29.195-69.87-.095-4.096-.122-8.19-.121-12.287l-.005-2.602c.018-13.36 1.015-25.63 5.442-38.335l1.164-3.645c8.182-23.46 25.145-43.115 47.336-54.27 25.236-12.078 57.256-13.945 82.5-1.085Z"/><path fill="#F9F8FA" d="M597 689h42c-.834 3.337-1.825 6.275-3.082 9.46l-1.307 3.323c-.47 1.185-.94 2.37-1.423 3.592-.493 1.247-.985 2.493-1.476 3.74-5.913 14.974-11.908 29.915-17.904 44.856-5.643 14.058-11.278 28.118-16.495 42.341-3.386 9.185-7.212 18.198-11 27.222-4.365 10.444-8.181 21.018-11.872 31.716-1.089 2.969-2.372 5.816-3.703 8.684-3.017 6.555-5.648 13.251-8.27 19.97-.86 2.203-1.724 4.404-2.588 6.604a2554.327 2554.327 0 0 0-7.88 20.314c-11.179 29.12-25.129 53.81-54.688 67.428-21.66 9.083-46.352 9.636-68.496 1.594-1.977-.864-3.908-1.836-5.816-2.844 1.76-5.895 4.365-11.366 6.938-16.938 2.754-5.994 5.5-11.983 8.062-18.062 3.668.628 6.858 1.7 10.313 3.063 13.038 4.372 25.84 2.358 38.21-3.196C496.067 936.95 502.3 929.967 508 921l1.184-1.809c3.118-5.059 4.901-10.604 6.816-16.191.315-.835.63-1.67.953-2.531l.86-2.344.769-2.055c.989-4.897-1.442-9.76-3.16-14.289l-.798-2.113c-2.845-7.415-6.068-14.651-9.342-21.885a2714.83 2714.83 0 0 1-5.321-11.869l-1.054-2.359c-4.027-9.038-7.835-18.161-11.582-27.319-1.511-3.69-3.03-7.377-4.552-11.064-4.489-10.886-8.968-21.777-13.442-32.67l-4.394-10.69-.873-2.124a4387.53 4387.53 0 0 0-12.877-30.938c-3.856-9.178-7.706-18.358-11.5-27.563l-1.15-2.768-1.025-2.501-.892-2.163C436 692 436 692 436 690h43l5 12 2.43 5.824c4.886 11.714 9.763 23.43 14.57 35.176l1.14 2.77c1.93 4.74 3.672 9.522 5.36 14.355 1.322 3.75 2.632 7.365 4.5 10.875 2.386 4.485 3.926 9.247 5.559 14.047 1.144 3.26 2.47 6.425 3.82 9.605 2.649 6.3 4.92 12.693 7.121 19.16l1.105 3.213c2.851 8.308 5.627 16.64 8.395 24.975l1.006-2.851 6.201-17.569c.26-.738.52-1.476.79-2.236l1.598-4.527a3129.21 3129.21 0 0 0 3.936-11.199 858.266 858.266 0 0 1 10.344-27.993l.783-2.02c3.411-8.802 6.943-17.541 10.679-26.212 2.46-5.763 4.557-11.616 6.586-17.543 1.66-4.804 3.608-9.374 5.792-13.967 1.903-4.269 3.484-8.65 5.055-13.051 1.772-4.884 3.867-9.105 6.23-13.832ZM775 689l2.16.621c10.746 3.553 20.427 9.936 28.84 17.379l1.89 1.605c12.94 11.804 20.124 30.647 21.276 47.877.262 6.8.204 13.601.162 20.405-.003 2.227-.005 4.454-.006 6.682-.004 4.669-.018 9.337-.04 14.006-.029 5.841-.04 11.681-.045 17.522-.026 29.316-.474 58.596-1.237 87.903l-39 1-.06-12.478c-.067-13.626-.145-27.253-.228-40.88-.05-8.258-.096-16.518-.134-24.777-.033-7.203-.073-14.406-.12-21.61-.026-3.81-.048-7.62-.061-11.43-.013-3.594-.035-7.19-.064-10.784-.014-1.93-.017-3.86-.02-5.79-.143-15.044-2.098-29.983-12.942-41.278C763.77 725.32 749.484 723.692 735 725c-13.844 2.732-26.464 11.28-34.578 22.746-9.274 13.881-11.542 28.942-11.627 45.361l-.03 3.61c-.026 3.243-.048 6.486-.068 9.73-.022 3.397-.05 6.795-.076 10.193-.05 6.424-.095 12.849-.138 19.273-.05 7.318-.105 14.636-.16 21.954-.114 15.044-.22 30.089-.323 45.133h-41V690h39v32h2l.266-2.176c2.916-11.214 16.378-20.086 25.882-25.676 6.082-3.173 12.207-5.475 18.852-7.148l1.813-.521c12.526-2.742 28.025-1.188 40.187 2.521ZM888 608c4.618 1.847 7.987 4.036 11.875 7 12.533 9.729 12.533 9.729 26.31 17.36 3.312 3.106 3.253 3.781 3.404 8.143a266.938 266.938 0 0 1-.222 6.919l-.078 3.264c-.105 4.022-.262 8.043-.414 12.064L928 690h64v36h-64c.12 17.456.12 17.456.258 34.912.06 7.128.118 14.255.164 21.383.037 5.751.083 11.502.136 17.253.018 2.186.034 4.372.045 6.558-.542 24.48-.542 24.48 10.065 45.804 3.971 3.699 8.2 5.517 13.332 7.09l2.633 1.063c4.452 1.24 8.582 1.228 13.18 1.187l2.58.023c4.915-.015 9.366-.47 14.117-1.747 3.78-.799 7.65-1.1 11.49-1.526v37c-21.483 7.161-49.814 7.346-70.375-2.688-15.49-8.104-26.567-20.59-32.665-37.134a148.881 148.881 0 0 1-2.298-8.75l-.767-3.27c-2.596-12.005-2.656-23.779-2.48-36.006.01-2.363.019-4.726.025-7.09.022-6.127.081-12.253.148-18.38.062-6.289.089-12.578.119-18.868.064-12.271.169-24.543.293-36.814h-40v-36h40v-82Z"/><path fill="#F8F6F8" d="m1415.125 705.125 2.265 1.56 2.118 1.51 1.895 1.345c1.81 1.655 2.637 3.22 3.597 5.46l-1.504 1.617c-5.013 5.498-9.365 11.201-13.496 17.383l-1.77 2.633c-1.417 2.118-2.827 4.24-4.23 6.367-3.792-.606-6.006-2.349-9-4.688-17.265-12.748-35.88-16.39-56.895-13.84-16.353 3.012-30.19 12.248-40.105 25.528-9.195 14.062-13.17 27.362-13.25 44.125l-.063 3.227c-.086 17.766 6.587 34.941 18.56 48.12 14.268 13.66 32.25 20.375 51.869 20.118 13.686-.582 25.412-4.601 36.966-11.82 2.602-1.578 5.064-2.741 7.918-3.77l2.02 1.871c12.345 11.384 12.345 11.384 25.98 21.129-3.71 10.183-19.697 16.658-28.688 21l-2.838 1.383c-6.674 3.111-13.279 5.096-20.474 6.617l-2.72.614c-7.326 1.518-14.503 1.734-21.967 1.698l-3.739-.014c-26.387-.339-52.72-10.57-71.648-29.357-1.725-1.926-3.33-3.908-4.926-5.941l-1.914-2.227C1260.233 856.28 1254.567 844.87 1250 832l-1.035-2.445c-1.165-3.084-1.848-6.143-2.527-9.367l-.754-3.52c-5.617-30.135-.2-59.902 16.316-85.668 2.776-3.909 5.744-7.485 9-11l2.293-2.535c37.306-39.375 98.089-42.714 141.832-12.34Z"/><path fill="#F8F7F9" d="m1163 696 2 1c-1.26 3.51-2.673 6.085-5.063 8.938-3.653 4.542-6.76 9.33-9.828 14.277-3.765 6.013-3.765 6.013-6.109 7.785-4.173-.17-7.577-1.198-11.5-2.563-12.848-3.926-26.873-1.528-38.828 4.141-16.66 9.293-26.573 23.452-31.985 41.672-2.453 8.82-2.843 17.303-2.892 26.398l-.03 3.462a6343.6 6343.6 0 0 0-.081 11.265l-.063 7.835c-.05 6.159-.095 12.317-.138 18.476-.05 7.016-.105 14.031-.16 21.047-.114 14.422-.22 28.845-.323 43.267l-41 1V689h40l1 32 5.313-6.438c26.351-31.082 63.95-36.674 99.687-18.562Z"/><path fill="#FAFAFC" d="M381 583c5.354 2.975 10.263 5.785 15.27 9.188 3.618 2.401 7.296 4.701 10.98 7l2.078 1.297c3.956 2.529 3.956 2.529 8.253 4.363C420 607 420 607 420.46 609.218c.176 3.136.181 6.239.141 9.38l.013 3.67c.007 3.37-.009 6.736-.034 10.105-.021 3.63-.014 7.26-.01 10.89.002 6.29-.013 12.581-.041 18.872-.04 9.096-.054 18.191-.06 27.287-.011 14.757-.045 29.513-.092 44.27a25044.169 25044.169 0 0 0-.106 45.685l-.02 13.294c-.051 36.777-.14 73.553-.251 110.329h-39V583Z"/><path fill="#F9F7F8" d="M1184 689h40v214h-40V689Z"/><path fill="#101010" d="M307.531 731.793c10.728 9.59 16.1 19.61 20.469 33.207l1.145 3.434C330 772 330 772 330 780H218c.709-6.381 1.411-11.116 3.688-16.875l.81-2.088c5.978-15.027 14.946-28.17 29.94-35.35 17.726-7.072 39.928-5.915 55.093 6.106Z"/><path fill="#F6F5F6" d="M1213.25 621.625c6.771 3.968 12.528 8.585 14.75 16.375 1.21 8.263.022 15.232-5 22-2.478 2.365-5.05 4.265-8 6l-1.855 1.137c-5.813 2.34-13.799 1.655-19.645-.387-6.357-3.178-9.541-6.41-12.55-12.828-2.13-6.554-1.68-13.142.05-19.735 7.058-11.248 19.08-18.674 32.25-12.562Z"/><path fill="#030303" d="M421 612h2c.942 8.23.977 16.163.531 24.413-.711 15.044-.643 30.08-.6 45.136.01 3.984.014 7.968.018 11.952.01 10.062.03 20.124.051 30.187.022 10.936.043 21.872.053 32.808.005 4.724.015 9.447.029 14.17.007 2.927.01 5.853.013 8.78.003 1.998.01 3.998.018 5.997v3.612l.007 3.132c-.116 2.71-.51 5.175-1.12 7.813h2c.625 1.688.625 1.688 1 4l-.96 2.081c-1.431 4.017-1.327 7.695-1.315 11.929l-.015 2.721a1627.78 1627.78 0 0 0-.01 8.89l-.014 6.19c-.007 4.324-.007 8.647-.002 12.97.006 5.537-.01 11.072-.034 16.608-.015 4.261-.016 8.522-.013 12.784 0 2.04-.005 4.081-.015 6.122-.013 2.856-.006 5.71.006 8.566l-.023 2.546c.044 4.953.753 8.248 3.395 12.593l-3 1c-3.732-5.71-3.398-11.101-3.323-17.769l.005-3.616c.007-3.305.028-6.609.054-9.913.026-3.567.033-7.133.043-10.7.02-6.176.05-12.352.089-18.528.055-8.93.094-17.86.128-26.79.057-14.488.127-28.977.205-43.465a39892.311 39892.311 0 0 0 .275-57.907c.155-36.104.332-72.208.524-108.312Z"/><path fill="#1D1D1D" d="M544 820c1.114 3.318.877 5.248-.215 8.547l-.83 2.558-.893 2.645-.88 2.691A834.185 834.185 0 0 1 539 843c-2-1-2-1-3.105-3.766l-1.082-3.484-1.106-3.453c-.7-3.263-.64-5.136.293-8.297l2.938-.375L540 823l1-2 3-1Z"/><path fill="#0E0E0E" d="M538 944v3l1 3c-1.074 1.684-1.074 1.684-2.688 3.438l-1.675 1.87C533 957 533 957 530.625 959c-2.376 2.925-1.905 5.359-1.625 9l-2 1c-2.125-.938-2.125-.938-4-2v3l-2-2c.132-4.893 2.643-6.721 6-10a63.08 63.08 0 0 0 2-3.5c1.835-3.425 4.132-5.859 7-8.5l2-2Z"/><path fill="#1E1E1E" d="M1300 749c.75 1.625.75 1.625 1 4-1.938 3.25-1.938 3.25-4 6l2 1-1 5-1.75.25c-2.866.955-4.25 2.535-6.25 4.75l-1-1c.142-6.655 3.062-11.725 7-17 2.2-1.797 2.2-1.797 4-3Z"/><path fill="#141414" d="M1248 756h1c-.605 5.656-1.622 11.002-3.063 16.5l-.564 2.203c-.453 1.767-.913 3.532-1.373 5.297l-3-1c-.248-6.57.676-12.57 2-19l1 2c2.784-1.392 2.979-3.156 4-6Z"/><path fill="#1F1F1F" d="M556 901h2l-.625 3.188c-.665 3.682-.665 3.682.688 6.375 1.294 3.366.292 5.2-1.063 8.437l-1-2-6 1c.43-6.016 1.523-12.523 6-17Z"/><path fill="#101010" d="M1288 885c3.936 1.48 7.575 3.271 11.25 5.313l3.203 1.738C1305 894 1305 894 1305.86 896.73L1306 899l-3 1v-2l-3-1-1 2-3.613-4.59c-1.444-1.682-1.444-1.682-4.387-2.41-1.063-1.938-1.063-1.938-2-4l-2-2 1-1Z"/><path fill="#131313" d="M1321 901c6.142.585 12.007 1.54 18 3l-1 2a99.371 99.371 0 0 1-7.938 1.25l-2.248.313c-1.929.237-3.873.346-5.814.437l-2-2c.375-2.625.375-2.625 1-5Z"/><path fill="#323232" d="M389 581c5.645 1.468 5.645 1.468 8 5l-1 2v4c-3.623-1.326-6.635-2.943-9.813-5.125l-2.394-1.633L382 584c2.5-3 2.738-3 7-3Z"/><path fill="#E9E9E9" d="M222 828c2.011 2.011 2.993 3.69 4.313 6.188 2.28 4.196 4.836 7.983 7.687 11.812h-2l-1 2a311.784 311.784 0 0 1-3-3.313l-1.688-1.863C225 841 225 841 225 838l-4-1c-.81-2.915-1.218-4.461-.063-7.313L222 828Z"/><path fill="#191919" d="M616 752c2 3 2 3 1.898 5.121-1.815 8.033-1.815 8.033-5.898 10.879h-3c.556-5.426 2.352-10.254 5-15l2-1Z"/><path fill="#2D2C2E" d="m190 857 3 2 2-1a992.081 992.081 0 0 1 2.938 4.313l1.652 2.425C201 867 201 867 202 870l-2 2-5-4-1 2c-1.47-4.303-2.774-8.623-4-13Z"/><path fill="#0F0F0F" d="M221 817h6c1.035 4.452 1 6.89-1 11l-1 3c-2.684-2.45-3.918-4.282-4.098-8.043L221 817Z"/><path fill="#151515" d="M323 852c-.2 1.824-.2 1.824-1 4-2.145 1.52-2.145 1.52-4.813 2.813l-2.644 1.332c-2.733.919-3.89.863-6.543-.145h2v-5c8.429-3.429 8.429-3.429 13-3Z"/><path fill="#111112" d="M421 612h2c1.232 11.445.75 22.543 0 34-2.298-3.642-2.231-6.708-2.195-10.953l.008-2c.011-2.1.037-4.198.062-6.297.01-1.427.02-2.854.027-4.281.022-3.49.057-6.98.098-10.469Z"/><path fill="#0F0F0F" d="M253 902c2.438.114 4.875.24 7.313.375.69.03 1.38.062 2.091.094 3.666.212 5.475.45 8.596 2.531h-3v2c-2.454 1.227-4.2 1.202-6.938 1.25l-2.652.078C256 908 256 908 254.184 906.672 253 905 253 905 253 902Z"/><path fill="#0C0C0C" d="m694 760 5 3a605.18 605.18 0 0 1-2 5l-1.375 3.563c-1.543 3.264-2.92 5.106-5.625 7.437v-5l4-1-1.063-2.063c-1.17-3.669-.727-6.204.063-9.937l1-1Z"/><path fill="#0A0A0A" d="M1428 878c1.43 2.354 2.087 3.48 1.625 6.25L1429 886l-5 1-4-5c3.5-4 3.5-4 8-4Z"/><path fill="#0B0B0B" d="M646 884h1v20h6l-1 3h-6l-2-2v-3h2l-1-2c-.098-2.532-.14-5.03-.125-7.563l-.012-2.115c.01-5.195.01-5.195 1.137-6.322Z"/><path fill="#EDECED" d="M196 861c2.813-.25 2.813-.25 6 0 1.625 2 1.625 2 3 4h4l-4 7c-3.636-3.434-6.361-6.797-9-11Z"/><path fill="#0E0E0E" d="M946 853c4.478.084 6.491.567 9.938 3.5C958 859 958 859 958 860c-9.173-.35-9.173-.35-12.625-3.063L944 855l2-2Z"/><path fill="#100F10" d="M1396 738c2.875 1.625 2.875 1.625 5 4 .813 3.75.813 3.75 1 7l-6-2-1-5-3.438-.875L1388 740l-1-2c3.188-1.594 5.59-.751 9 0Z"/><path fill="#313131" d="m317 691 9 2v2l2 1.5 2 1.5v2c-3 1-3 1-5.629-.145l-2.933-1.668-2.942-1.644C316 695 316 695 314 693h3v-2Z"/><path fill="#222" d="M472 785c1.813.063 1.813.063 4 1 2.486 4.528 3.383 7.768 3 13-1.5-1.375-1.5-1.375-3-3v-2h-2l-1 4c-.702-4.386-1.108-8.558-1-13Z"/><path fill="#0E0E0E" d="M493 981c-.563 1.813-.563 1.813-2 4-3.5 1.813-3.5 1.813-7 3l-2-1a75.68 75.68 0 0 0-5 1v-2h3v-2c4.155-2.397 8.241-3 13-3Z"/><path fill="#353535" d="M264 683c-2 3-2 3-3.788 3.616l-2.126.333-2.305.381-2.406.357-2.43.393c-1.98.318-3.962.62-5.945.92l-1-3-3-2h5l1 2 2.438-.875c11.53-3.641 11.53-3.641 14.562-2.125Z"/><path fill="#313131" d="m713 691 2 1c-1.528 4.086-4.11 5.798-7.625 8.25l-3.04 2.14L702 704l-2-2 3-5 4 1-1-3c5.273-3.223 5.273-3.223 7-4Zm-9 7-1 2h2l-1-2Z"/><path fill="#0D0D0D" d="M1244 821h3c.335 5.69.282 9.149-3 14l1 3-3 1v-11h2v-3l-2-1 2-3Z"/><path fill="#090808" d="M737 725c3.292-.058 6.583-.094 9.875-.125.937-.017 1.874-.034 2.84-.05l2.715-.02 2.507-.032C757 725 757 725 759 727c-2 2-2 2-5.04 2.195l-3.585-.07-3.602-.055L744 729v-1h6v-2c-.77.095-1.542.19-2.336.29-1.003.11-2.006.22-3.039.335l-3.023.352L739 727l-2-2Z"/><path fill="#2E2E2E" d="m571 731 2 2c2.603-.32 2.603-.32 5-1 1.136 3.41.867 4.003-.438 7.188l-.87 2.167L576 743l-1-2h-2c-1.316-3.62-2-6.096-2-10Z"/><path fill="#1C1C1C" d="m992 853 7 1c.37 4.554.37 4.554-1.5 6.813L996 862v-4h-9v-2l5-1v-2Z"/><path fill="#1B1B1B" d="M463 760c3.254 2.834 4.52 4.686 5 9l-4 3-2-1v-3l-2 1c.375-2.438.375-2.438 1-5l2-1v-3Z"/><path fill="#171717" d="M538 944v3l1 3c-5.625 4.875-5.625 4.875-9 6l-2 2c1.074-5.368 4.156-9.455 8.313-12.938L538 944Z"/><path fill="#161616" d="m1256 730 1 2 2 1a259.725 259.725 0 0 1-1.313 4.438l-.738 2.496L1256 742l-3 1v-11l3-2Z"/><path fill="#0A0A0A" d="m1297 759 2 1-1 5-1.75.25c-2.866.955-4.25 2.535-6.25 4.75-.688-1.813-.688-1.813-1-4 1.313-1.563 1.313-1.563 3-3l2-3h2l1-1Z"/><path fill="#2F2F2F" d="m892 603 .75 1.813c1.465 2.564 2.724 3.671 5.25 5.187 2.65.714 2.65.714 5 1-2.167 2.167-3.016 2.657-6 3-2.742-1.17-4.94-2.85-7-5-.438-2.813-.438-2.813 0-5l2-1Z"/><path fill="#2D2D2C" d="m731 686 2 2-14 4c0-2 0-2 2-4l1-2c3.236-1.271 5.699-.956 9 0Z"/><path fill="#1C1C1C" d="M588 825c1.852 3.705.041 8.132-1 12l-3-2-2 1c.37-6.4.37-6.4 3.563-9.438L588 825Z"/><path fill="#2E2E2E" d="M348 717c6.952 6.769 6.952 6.769 7.125 11.188L355 731c-3.449-4.087-6.238-8.438-9-13l2-1Z"/><path fill="#0B0B0B" d="M556 909h2c1.467 3.815.433 6.29-1 10l-1-2-6 1c.25-1.875.25-1.875 1-4a89.47 89.47 0 0 1 4-2l1-3Z"/><path fill="#171717" d="M424 964h4c-1.625 6.75-1.625 6.75-5 9-1.192 2.05-1.192 2.05-2 4-1.4-2.799-.548-4.121.375-7.063l.836-2.722C423 965 423 965 424 964Z"/><path fill="#181818" d="M519 768c-.352 5.461-.352 5.461-1 8-2.063 1.5-2.063 1.5-4 2-.688-2.813-.688-2.813-1-6 1.448-2 3.333-4 6-4Z"/><path fill="#EFEFF0" d="M325 741c2.799 2.528 4.458 4.204 5 8h-3c-2.003.314-4.004.645-6 1-.625-1.875-.625-1.875-1-4l2-2 3 1v-4Z"/><path fill="#2C2C2C" d="m773 682 5 1v3l-3 1v2l-7-1 2-2-1-2h4v-2Z"/><path fill="#E1E1E1" d="M331.063 851.188C333 852 333 852 335 855l-3 3c-2.438-.813-2.438-.813-5-2l-1-3c3-2 3-2 5.063-1.813Z"/><path fill="#E4E2E3" d="M1428 873c-1.389 3.356-2.917 5.073-6 7h-2v-6c3.067-1.862 4.597-2.215 8-1Z"/><path fill="#0E0E0E" d="m574 856 1 4Zm-1 4c1.563 1.688 1.563 1.688 3 4-.313 2.75-.313 2.75-1 5l-5-2c.75-4.75.75-4.75 3-7Z"/><path fill="#101010" d="m1305 741 3 1v3l2 1c-1 3-1 3-3 4v-2l-4-1c.875-4.875.875-4.875 2-6Z"/><path fill="#131313" d="m633 705 4 2c-.498 3.688-1.1 5.605-4 8-1-1-1-1-1.133-2.813l.008-2.187-.008-2.188C632 706 632 706 633 705Z"/><path fill="#2C2C2C" d="m511 909 3 1c-1.653 4.093-3.135 7.59-6 11l-2-5 1.938-1.813c2.265-2.095 2.265-2.095 3.062-5.187Z"/><path fill="#141415" d="m385.504 902.902 3.058.035 3.067.028L394 903l-1 2a256.638 256.638 0 0 1-7 2c-1.354.625-2.7 1.272-4 2a99.984 99.984 0 0 1 0-5c1-1 1-1 3.504-1.098Z"/><path fill="#D7D6D9" d="m187 742 2 4-1.563 1.5c-2.154 3.747-1.205 6.308-.437 10.5l-3-2-2 3c.538-6.182 2.546-11.327 5-17Z"/><path fill="#0D0D0D" d="M323 852c-.313 1.938-.313 1.938-1 4-4.318 1.44-7.7.077-12-1 8.429-3.429 8.429-3.429 13-3Z"/><path fill="#0B0B0B" d="M1222 903c3 .313 3 .313 6 1l1 2-1 3c-2.938-.813-2.938-.813-6-2l-1-3 1-1Zm-4 2 3 1Z"/><path fill="#0C0C0C" d="M1364 725c1.459.141 2.917.288 4.375.438l2.46.246C1373 726 1373 726 1375 727v2c-2.892.826-4.887 1-8 1-1.75-2.5-1.75-2.5-3-5Z"/><path fill="#1B1B1B" d="m291 724 9 3c-4.332 2.166-4.674 1.998-9 1l-3 1-3-2 2.438-.938c2.453-.825 2.453-.825 3.562-2.062Z"/><path fill="#D5D4D4" d="M1280 711v3l-2.438 2.375c-2.66 2.726-3.245 3.922-3.562 7.625h-6c3.805-4.56 7.75-8.85 12-13Z"/><path fill="#2A2C2B" d="M378 685h1v14c-2.863-2.863-2.962-6.104-3-10 .938-2.5.938-2.5 2-4Z"/><path fill="#131313" d="M611 769c-.432 4.752-1.328 6.92-5 10-.293-6.055-.293-6.055 0-8 3-2 3-2 5-2Z"/><path fill="#18181A" d="m503 747 5 1-1 8c-2.523-1.974-2.993-2.967-3.688-6.188L503 747Z"/><path fill="#2D2D2D" d="m1225 655 2 4a568.823 568.823 0 0 1-5.313 4.563l-2.988 2.566L1216 668l-3-1 2.188-1.688c3.8-3.124 7.078-6.21 9.812-10.312Z"/><path fill="#2F2F2F" d="M913 621c3.847 1.248 6.03 2.387 8 6l-1 3a221.125 221.125 0 0 1-3.5-2.313l-1.969-1.3L913 625v-4Z"/><path fill="#323232" d="M248 901c1.77-.054 3.541-.093 5.313-.125l2.988-.07C259 901 259 901 262 903h-8l5 1v1l-10-1-1-3Z"/><path fill="#1A1A1A" d="M901 878c3.313-.313 3.313-.313 7 0 1.938 2.5 1.938 2.5 3 5h-7l-1 2-2-7Z"/><path fill="#E0E0E0" d="M563 773c1.565 5.479.652 9.63-1 15l-3-2 1.438-4.813.808-2.707c.558-1.835 1.147-3.66 1.754-5.48Z"/><path fill="#DFDEDF" d="M1317 893h2c1.063 2.375 1.063 2.375 2 5l-1 2-7-2 1-3h3v-2Z"/><path fill="#131313" d="m1428 878 1 3c-2.813 1.563-2.813 1.563-6 3l-3-1c2.039-4.515 2.809-5 8-5Z"/><path fill="#181717" d="M1343 861c2.063.438 2.063.438 4 1h-2l1 3c-1.457.081-2.916.14-4.375.188l-2.46.105L1337 865l-2-3 3.438.063c3.378.353 3.378.353 4.562-1.063Z"/><path fill="#353537" d="m181 837 4 1-.125 2.625c.13 3.499.885 6.12 2.125 9.375h-3l-2-3h2l-1.5-3.313C181 840 181 840 181 837Z"/><path fill="#D5D4D4" d="m700 704 2 1c-2.28 4.56-3.471 6.412-8 9l-3 2c1.444-3.239 3.258-5.62 5.625-8.25l1.914-2.14L700 704Z"/><path fill="#0D0D0D" d="M1185 903h10l-1 2c-2.649.594-5.292.742-8 1l-1 4c-1-3-1-3 0-7Z"/><path fill="#EAEAEA" d="M443 704c3.938 3.767 3.938 3.767 4.098 6.945L447 717c-1.79-2.686-2.66-4.663-3.625-7.688l-.79-2.449c-.192-.615-.386-1.23-.585-1.863l1-1Z"/><path fill="#2C2C2E" d="m484 693 3 1c.95 2.066.95 2.066 1.688 4.563.25.826.502 1.652.761 2.503L490 703l-3 1c-1.61-3.65-2.449-7.05-3-11Z"/><path fill="#DDDCDD" d="M1294 834c4 4.625 4 4.625 4 8l-1 2-5-7c1-2 1-2 2-3Z"/><path fill="#1B1B1B" d="M367 749h1v12h-2c-1.39-2.78-1.185-4.919-1-8 1-2.375 1-2.375 2-4Z"/><path fill="#0C0C0C" d="m1163 703 3 1v5h-5l-1-3 3-3Z"/><path fill="#111" d="M644 902h3v2h6l-1 3h-6l-2-2v-3ZM1384 899h6l1 2-2 2h-4l-3 1 2-5ZM1398.188 895.313 1401 896c-2.395 2.9-4.312 3.502-8 4l-1-2c2.038-2.83 2.597-3.04 6.188-2.688Z"/><path fill="#E6E5E5" d="M921.125 884.938c1.087.291 1.087.291 2.195.59L925 886l-1 3c-5.538-.615-5.538-.615-7.875-2.563L915 885c2.547-1.274 3.428-.802 6.125-.063Z"/><path fill="#E9E8E9" d="M1269 863c2.438.75 2.438.75 5 2 .938 2 .938 2 1 4l-2 2-5-6 1-2Z"/><path fill="#343435" d="m190 857 3 2 2-1 2 9c-4.214-2.883-5.76-5.043-7-10Z"/><path fill="#1B1B1D" d="M493 722h2c1.625 2.75 1.625 2.75 3 6-.813 2.375-.813 2.375-2 4-2.034-3.73-3-5.67-3-10Z"/><path fill="#343434" d="M586 709h2c-.547 3.375-1.055 5.082-3 8l-2-2h-2l2-4h2l1-2Z"/><path fill="#DDDCDC" d="m1301 697 2 1-2 2h-3v4h-7c2.982-3.326 5.864-5.292 10-7Z"/><path fill="#131313" d="m518 965 2 1c-2.462 4.8-2.462 4.8-5.188 5.813L513 972c.398-2.886.79-3.822 3.063-5.75L518 965Z"/><path fill="#181818" d="M946 853c2.625.938 2.625.938 5 2v4c-2.375-.25-2.375-.25-5-1-1.313-2.063-1.313-2.063-2-4l2-1ZM250 854.188c2 .812 2 .812 3.25 2.875L254 859c-3.716.2-4.772.152-8-2v-2c2-1 2-1 4-.813Z"/><path fill="#1A1A1C" d="m496 838 2 1v11c-2.19-3.285-2.998-6.207-4-10l2-2Z"/><path fill="#101010" d="m472 785 3 1c.286 8.571.286 8.571-2 12-.702-4.386-1.108-8.558-1-13Z"/><path fill="#1C1C1C" d="M1385 732c4.43 1.208 6.981 2.517 10 6-3.123-.486-5.996-.999-9-2v-2l-2-1 1-1Z"/><path fill="#232323" d="m301 728 3.375 1.813 1.898 1.019C308 732 308 732 310 735l-3 1c-3.188-2.25-3.188-2.25-6-5v-3Z"/><path fill="#2F2F2F" d="M194 722h4c-1.186 3.375-2.276 5.647-5 8l-2-1v-2h2l1-5Z"/><path fill="#D4D3D4" d="m723 690 2 1-5 2v3h-7c2.689-3.322 6.053-4.565 10-6Z"/><path fill="#3C3C3C" d="m1378.688 685.688 2.386.511L1383 687l1 3-14-3c4.082-2.04 4.588-2.268 8.688-1.313Z"/><path fill="#141414" d="m547 923 2 1c.625 2.563.625 2.563 1 5l-5 1c.875-5.875.875-5.875 2-7Z"/><path fill="#EAE9E9" d="M234 847c2.5 2.313 2.5 2.313 5 5v3h-3c-1.75-2.313-1.75-2.313-3-5l1-3Z"/><path fill="#131313" d="M343 853h3c2 3 2 3 1.75 5-.75 2-.75 2-2.75 5l-2-4 2-1v-2l-2-1v-2Z"/><path fill="#EEEEEF" d="m505 850 4 1-.938 2.25c-.871 2.257-1.539 4.395-2.062 6.75-2.429-6.286-2.429-6.286-1-10Z"/><path fill="#151513" d="M1302 842c3.375.547 5.082 1.055 8 3l-1 2c-2.375.125-2.375.125-5 0l-2-2v-3Z"/><path fill="#1D1D1D" d="M509 761h3l1 10c-2-1.625-2-1.625-4-4-.25-3.25-.25-3.25 0-6Z"/><path fill="#3F3D3E" d="m317 691 5 2v4c-5.75-1.75-5.75-1.75-8-4h3v-2Z"/><path fill="#333" d="m409 594 1 2-3 3-3-1v-2l-2-2c2.698-1.349 4.152-.803 7 0Z"/><path fill="#2E2E2E" d="m496 980 1 3-4 1v-3l-7 1c3.83-2.553 5.583-3.472 10-2Z"/><path fill="#0D0D0D" d="m1225 890 2 1c.594 2.649.742 5.292 1 8l-3 1v-10Z"/><path fill="#0C0C0C" d="M426 876c2 2 2 2 2.125 5.625L428 885l-3-1c-.042-2.333-.04-4.667 0-7l1-1Z"/><path fill="#161616" d="M1322 855c3.125.375 3.125.375 6 1l-1 3c-1.875.875-1.875.875-4 1-1.75-1.438-1.75-1.438-3-3l2-2Z"/><path fill="#131313" d="M992 853h5l-4 2v3h-6v-2l5-1v-2Z"/><path fill="#30302F" d="M484 813h3l3 9h-2c-4-6.75-4-6.75-4-9Z"/><path fill="#111" d="m591 815 3 3c-1.952 1.952-3.532 2.848-6 4-.188-2.375-.188-2.375 0-5l3-2Z"/><path fill="#DCDCDC" d="M526 809c1.954 2.931 2.647 4.558 3 8l-2 2c-2.567-3.85-1.833-5.586-1-10Z"/><path fill="#101010" d="M1257 733c1.267 3.801.572 5.385-1 9l-3 1c.706-3.669 2.277-6.705 4-10Z"/><path fill="#E8E7E8" d="M1181 652c3 0 3 0 4.688 1.5L1187 655l-2 4c-2.5-2.174-3.436-3.73-4-7Z"/><path fill="#141414" d="m1358 861 11 2c-2 2-2 2-5.625 2.125L1360 865v-2l-2-2Z"/><path fill="#2A2C2B" d="M172 773h2v2h2v6l-4-2v-6Z"/><path fill="#1A1A1A" d="M691 766c2.36 2.36 2.491 3.779 3 7h-2l-1 2-1-1c.176-2.69.618-5.329 1-8Z"/><path fill="#F1EFF0" d="m242 722 2 1Zm-2 1h2v2h2v2l-4 1v-5Zm4 0h2l-1 3-1-3Z"/><path fill="#D5D5D5" d="m1289 704 2 1-1 4-2.25.438c-2.27.464-4.508.98-6.75 1.562 2.578-2.648 4.916-4.944 8-7Z"/><path fill="#2B2B2B" d="m713 691 2 1-2 4h-7c2.116-2.327 4.05-3.858 7-5Z"/><path fill="#DDDDDE" d="m229 840 5 5-2 1-1 2c-1.563-2.313-1.563-2.313-3-5l1-3Z"/><path fill="#0B0B0B" d="M1063 769h2v6l-4 2c.875-6.875.875-6.875 2-8Z"/><path fill="#2E2E2E" d="M568 752c.981 3.053.981 4.947 0 8l-1-1-3 3c1.002-3.793 1.81-6.715 4-10Z"/><path fill="#191919" d="M1293 888c2.915 1.074 4.778 1.778 7 4l-6 1-1-5Z"/><path fill="#2C2C2C" d="m392 582 3 1v3c-2.5 1.688-2.5 1.688-5 3 0-3.106.54-4.353 2-7Z"/><path fill="#060606" d="M253 905c1.418.115 2.834.243 4.25.375.789.07 1.578.14 2.39.21 2.446.43 4.208 1.201 6.36 2.415-1.603.081-3.208.14-4.813.188l-2.707.105c-2.896-.342-3.706-1.047-5.48-3.293Z"/><path fill="#0E0E0E" d="M421 902h2l3 6-3 1-3-6 1-1Z"/><path fill="#E8E7E8" d="m1307 891 4 2-1 3-6-2 3-3Z"/><path fill="#EBE9EA" d="M188 834v6l-3 1-1-5c3-2 3-2 4-2Z"/><path fill="#141414" d="m643 811 3 3c-.145 2.48-.145 2.48-.813 5.188l-.644 2.73L644 824h-1v-13Z"/><path fill="#D6D6D6" d="M515 780c2.377 2.377 2.67 3.703 3 7l-2 2c-2.092-4.43-2.092-4.43-1.625-7.313L515 780Z"/><path fill="#141414" d="M516 779h2l2 9c-3.31-3.31-3.504-4.532-4-9Z"/><path fill="#101010" d="M1300 749c.75 1.75.75 1.75 1 4-1.938 2.25-1.938 2.25-4 4v-3l-1-1 4-4Z"/><path fill="#151615" d="M1251 744h3c-.875 4.75-.875 4.75-2 7h-2l1-7Z"/><path fill="#E6E5E5" d="m195 727 3 2-3 5-2-4 2-3Z"/><path fill="#29292B" d="M818 718c2 1 2 1 3.125 4.063L822 725l-2 2c-3.077-4.43-3.077-4.43-2.688-7.313L818 718Z"/><path fill="#343435" d="M796 698c2.169.506 4 1 6 2l-1 4a105.022 105.022 0 0 1-5-4v-2Z"/><path fill="#363636" d="M906 615c.625 2.563.625 2.563 1 5-2.884-1.293-4.872-2.66-7-5 3.75-1.125 3.75-1.125 6 0Z"/><path fill="#EEE" d="M897 858h2l1 5-3 1a88.406 88.406 0 0 1-1-5l1-1Z"/><path fill="#0C0C0C" d="m585 831 3 2-1 4-3-3 1-3Zm-3 3 2 1-2 1v-2Z"/><path fill="#121212" d="m534 824 2 1v6h-2a128.624 128.624 0 0 1-1-6l1-1Z"/><path fill="#0E0E0E" d="M482 812c3 3 3 3 5 6v3h-2l-3-9Z"/><path fill="#0F0F0F" d="m467 775 4 1 1 5-1-2-3 1-1-5Z"/><path fill="#090909" d="m616 758 1 3c-2.333 4.667-2.333 4.667-5 6 1.059-3.403 2.009-6.014 4-9Z"/><path fill="#E2E2E2" d="M784 746h3l1 4-3 2-1-6Z"/><path fill="#DAD9D9" d="m240 732 3 1-7 5-1-4h5v-2Z"/><path fill="#DBDBDB" d="m220 701 2 1-1.375 1.313C218.8 705.107 218.8 705.107 217 708l-2-3 5-4Z"/></svg>